G04 start of page 2 for group 0 idx 0 *
G04 Title: (unknown), top *
G04 Creator: pcb 20110918 *
G04 CreationDate: Fri 24 Jul 2015 06:42:43 PM GMT UTC *
G04 For: ndholmes *
G04 Format: Gerber/RS-274X *
G04 PCB-Dimensions: 40000 67500 *
G04 PCB-Coordinate-Origin: lower left *
%MOIN*%
%FSLAX25Y25*%
%LNTOP*%
%ADD22C,0.1220*%
%ADD21C,0.0200*%
%ADD20C,0.0360*%
%ADD19R,0.0512X0.0512*%
%ADD18R,0.0276X0.0276*%
%ADD17R,0.0600X0.0600*%
%ADD16R,0.0300X0.0300*%
%ADD15C,0.0600*%
%ADD14C,0.1620*%
%ADD13C,0.0100*%
%ADD12C,0.0250*%
%ADD11C,0.0001*%
G54D11*G36*
X26115Y38006D02*X26109Y40849D01*
X26072Y41002D01*
X26012Y41147D01*
X25930Y41282D01*
X25827Y41401D01*
X25708Y41504D01*
X25573Y41586D01*
X25428Y41646D01*
X25275Y41683D01*
X25118Y41692D01*
X22205Y41683D01*
X22052Y41646D01*
X21907Y41586D01*
X21870Y41563D01*
X21833Y41586D01*
X21688Y41646D01*
X21535Y41683D01*
X21378Y41692D01*
X18465Y41683D01*
X18312Y41646D01*
X18167Y41586D01*
X18130Y41563D01*
X18093Y41586D01*
X17948Y41646D01*
X17795Y41683D01*
X17638Y41692D01*
X14725Y41683D01*
X14572Y41646D01*
X14427Y41586D01*
X14292Y41504D01*
X14173Y41401D01*
X14070Y41282D01*
X13988Y41147D01*
X13928Y41002D01*
X13891Y40849D01*
X13882Y40692D01*
X13891Y36599D01*
X13928Y36446D01*
X13988Y36301D01*
X14070Y36166D01*
X14173Y36047D01*
X14292Y35944D01*
X14311Y35933D01*
X11379Y33000D01*
X5559D01*
X5500Y33005D01*
X5265Y32986D01*
X5035Y32931D01*
X4817Y32841D01*
X4616Y32717D01*
X4615Y32717D01*
X4436Y32564D01*
X4398Y32519D01*
X2481Y30602D01*
X2436Y30564D01*
X2283Y30384D01*
X2159Y30183D01*
X2069Y29965D01*
X2014Y29735D01*
X2014Y29735D01*
X2000Y29559D01*
Y65500D01*
X38000D01*
Y29059D01*
X37986Y29235D01*
X37986Y29235D01*
X37931Y29465D01*
X37841Y29683D01*
X37717Y29884D01*
X37564Y30064D01*
X37519Y30102D01*
X35102Y32519D01*
X35064Y32564D01*
X34884Y32717D01*
X34683Y32841D01*
X34465Y32931D01*
X34235Y32986D01*
X34235Y32986D01*
X34000Y33005D01*
X33941Y33000D01*
X31121D01*
X26115Y38006D01*
G37*
G54D12*X8500Y19600D02*X15057D01*
X16457Y21000D01*
X15000Y5000D02*Y19543D01*
X16457Y21000D01*
G54D13*X20000Y24543D02*X16228Y20772D01*
X5000Y5000D02*Y15000D01*
X3500Y16500D01*
Y29500D01*
X5500Y31500D01*
X10500D01*
X12000D02*X9500D01*
X10876Y29276D02*X8500Y26900D01*
X16500Y39000D02*Y36000D01*
X12000Y31500D01*
X16260Y29276D02*X10876D01*
X16260D02*Y31260D01*
X17750Y32750D01*
G54D12*X25000Y5000D02*Y19543D01*
X23543Y21000D01*
X31500Y19600D02*X24943D01*
X23543Y21000D01*
X23740Y20803D02*X23772Y20772D01*
G54D13*X35000Y5000D02*Y15000D01*
X36500Y16500D01*
Y29000D01*
X34000Y31500D01*
X30500D01*
X20000Y29276D02*Y24543D01*
X23740Y29276D02*Y20803D01*
Y38724D02*Y38260D01*
X30500Y31500D02*X29000Y33000D01*
X17750Y32750D02*X25750D01*
X26500Y32000D01*
Y27500D01*
X27500Y26500D01*
X23740Y38260D02*X30000Y32000D01*
X27500Y26500D02*X31100D01*
X31500Y26900D01*
G54D14*X20000Y55000D03*
G54D15*X31500Y20100D03*
G54D16*X30000Y21600D02*X33000D01*
G54D15*X31500Y26900D03*
G54D16*X30000Y25400D02*X33000D01*
G54D17*X35000Y12500D02*Y4500D01*
G54D18*X23740Y29866D02*Y28686D01*
G54D17*X25000Y12500D02*Y4500D01*
X5000Y12500D02*Y4500D01*
X15000Y12500D02*Y4500D01*
G54D19*X23543Y20893D02*Y20107D01*
G54D15*X8500Y20100D03*
G54D16*X7000Y21600D02*X10000D01*
G54D15*X8500Y26900D03*
G54D16*X7000Y25400D02*X10000D01*
G54D19*X16457Y20893D02*Y20107D01*
G54D18*X16260Y29866D02*Y28686D01*
X20000Y29866D02*Y28686D01*
X23740Y39314D02*Y38134D01*
X20000Y39314D02*Y38134D01*
X16260Y39314D02*Y38134D01*
G54D20*X32500Y51500D03*
Y56500D03*
Y61500D03*
X30000Y45500D03*
X35000D03*
Y40500D03*
X30000D03*
X23500Y44500D03*
X32000Y36000D03*
X7500Y51500D03*
Y56500D03*
Y61500D03*
X5000Y45500D03*
X10000D03*
Y40500D03*
X5000D03*
X8000Y36000D03*
X16500Y44500D03*
G54D21*G54D22*M02*
