G04 start of page 8 for group -4079 idx -4079 *
G04 Title: (unknown), topsilk *
G04 Creator: pcb 20110918 *
G04 CreationDate: Fri 24 Jul 2015 06:42:43 PM GMT UTC *
G04 For: ndholmes *
G04 Format: Gerber/RS-274X *
G04 PCB-Dimensions: 40000 67500 *
G04 PCB-Coordinate-Origin: lower left *
%MOIN*%
%FSLAX25Y25*%
%LNTOPSILK*%
%ADD39C,0.0080*%
%ADD38C,0.0100*%
G54D38*X500Y67000D02*X39000D01*
X500Y500D02*X39500D01*
Y67000D01*
X38000D01*
X500D02*Y500D01*
X26618Y35256D02*Y32744D01*
X14382D02*X26618D01*
X14382D02*X13382Y33744D01*
Y35256D02*Y33744D01*
Y35256D02*X26618D01*
X19607Y23255D02*X20393D01*
X19607Y17745D02*X20393D01*
G54D39*X34350Y30375D02*Y29695D01*
Y30375D02*X37325D01*
X37750Y29950D02*X37325Y30375D01*
X37750Y29950D02*Y29525D01*
X37325Y29100D02*X37750Y29525D01*
X36900Y29100D02*X37325D01*
X34350Y31820D02*X37750D01*
X34350Y33095D02*Y31395D01*
Y33095D02*X34775Y33520D01*
X35625D01*
X36050Y33095D02*X35625Y33520D01*
X36050Y33095D02*Y31820D01*
X35030Y34540D02*X34350Y35220D01*
X37750D01*
Y35815D02*Y34540D01*
X2300Y30300D02*Y29660D01*
Y30300D02*X5100D01*
X5500Y29900D02*X5100Y30300D01*
X5500Y29900D02*Y29500D01*
X5100Y29100D02*X5500Y29500D01*
X4700Y29100D02*X5100D01*
X2300Y31660D02*X5500D01*
X2300Y32860D02*Y31260D01*
Y32860D02*X2700Y33260D01*
X3500D01*
X3900Y32860D02*X3500Y33260D01*
X3900Y32860D02*Y31660D01*
X2700Y34220D02*X2300Y34620D01*
Y35820D02*Y34620D01*
Y35820D02*X2700Y36220D01*
X3500D01*
X5500Y34220D02*X3500Y36220D01*
X5500D02*Y34220D01*
M02*
