G04 start of page 12 for group -3984 idx -3984 *
G04 Title: (unknown), fab *
G04 Creator: pcb 20110918 *
G04 CreationDate: Fri 24 Jul 2015 06:42:43 PM GMT UTC *
G04 For: ndholmes *
G04 Format: Gerber/RS-274X *
G04 PCB-Dimensions: 40000 67500 *
G04 PCB-Coordinate-Origin: lower left *
%MOIN*%
%FSLAX25Y25*%
%LNFAB*%
%ADD50C,0.0100*%
%ADD49C,0.0075*%
%ADD48C,0.0060*%
%ADD47R,0.0080X0.0080*%
G54D47*X20000Y56600D02*Y53400D01*
X18400Y55000D02*X21600D01*
X15000Y110350D02*Y107150D01*
X13400Y108750D02*X16600D01*
G54D48*X135000Y111000D02*X136500Y108000D01*
X138000Y111000D01*
X136500Y108000D02*Y105000D01*
X139800Y108300D02*X142050D01*
X139800Y105000D02*X142800D01*
X139800Y111000D02*Y105000D01*
Y111000D02*X142800D01*
X147600D02*X148350Y110250D01*
X145350Y111000D02*X147600D01*
X144600Y110250D02*X145350Y111000D01*
X144600Y110250D02*Y108750D01*
X145350Y108000D01*
X147600D01*
X148350Y107250D01*
Y105750D01*
X147600Y105000D02*X148350Y105750D01*
X145350Y105000D02*X147600D01*
X144600Y105750D02*X145350Y105000D01*
X98000Y109800D02*X99200Y111000D01*
Y105000D01*
X98000D02*X100250D01*
X45000Y105750D02*X45750Y105000D01*
X45000Y110250D02*Y105750D01*
Y110250D02*X45750Y111000D01*
X47250D01*
X48000Y110250D01*
Y105750D01*
X47250Y105000D02*X48000Y105750D01*
X45750Y105000D02*X47250D01*
X45000Y106500D02*X48000Y109500D01*
X49800Y105000D02*X50550D01*
X52350Y109800D02*X53550Y111000D01*
Y105000D01*
X52350D02*X54600D01*
X56400Y110250D02*X57150Y111000D01*
X59400D01*
X60150Y110250D01*
Y108750D01*
X56400Y105000D02*X60150Y108750D01*
X56400Y105000D02*X60150D01*
X61950Y110250D02*X62700Y111000D01*
X64950D01*
X65700Y110250D01*
Y108750D01*
X61950Y105000D02*X65700Y108750D01*
X61950Y105000D02*X65700D01*
X32500Y51500D02*Y49900D01*
Y51500D02*X33887Y52300D01*
X32500Y51500D02*X31113Y52300D01*
X32500Y56500D02*Y54900D01*
Y56500D02*X33887Y57300D01*
X32500Y56500D02*X31113Y57300D01*
X32500Y61500D02*Y59900D01*
Y61500D02*X33887Y62300D01*
X32500Y61500D02*X31113Y62300D01*
X7500Y51500D02*Y49900D01*
Y51500D02*X8887Y52300D01*
X7500Y51500D02*X6113Y52300D01*
X7500Y56500D02*Y54900D01*
Y56500D02*X8887Y57300D01*
X7500Y56500D02*X6113Y57300D01*
X7500Y61500D02*Y59900D01*
Y61500D02*X8887Y62300D01*
X7500Y61500D02*X6113Y62300D01*
X5000Y45500D02*Y43900D01*
Y45500D02*X6387Y46300D01*
X5000Y45500D02*X3613Y46300D01*
X10000Y45500D02*Y43900D01*
Y45500D02*X11387Y46300D01*
X10000Y45500D02*X8613Y46300D01*
X10000Y40500D02*Y38900D01*
Y40500D02*X11387Y41300D01*
X10000Y40500D02*X8613Y41300D01*
X5000Y40500D02*Y38900D01*
Y40500D02*X6387Y41300D01*
X5000Y40500D02*X3613Y41300D01*
X8000Y36000D02*Y34400D01*
Y36000D02*X9387Y36800D01*
X8000Y36000D02*X6613Y36800D01*
X30000Y45500D02*Y43900D01*
Y45500D02*X31387Y46300D01*
X30000Y45500D02*X28613Y46300D01*
X35000Y45500D02*Y43900D01*
Y45500D02*X36387Y46300D01*
X35000Y45500D02*X33613Y46300D01*
X35000Y40500D02*Y38900D01*
Y40500D02*X36387Y41300D01*
X35000Y40500D02*X33613Y41300D01*
X30000Y40500D02*Y38900D01*
Y40500D02*X31387Y41300D01*
X30000Y40500D02*X28613Y41300D01*
X16500Y44500D02*Y42900D01*
Y44500D02*X17887Y45300D01*
X16500Y44500D02*X15113Y45300D01*
X23500Y44500D02*Y42900D01*
Y44500D02*X24887Y45300D01*
X23500Y44500D02*X22113Y45300D01*
X32000Y36000D02*Y34400D01*
Y36000D02*X33387Y36800D01*
X32000Y36000D02*X30613Y36800D01*
X15000Y123750D02*Y122150D01*
Y123750D02*X16387Y124550D01*
X15000Y123750D02*X13613Y124550D01*
X135000Y126000D02*X136500Y123000D01*
X138000Y126000D01*
X136500Y123000D02*Y120000D01*
X139800Y123300D02*X142050D01*
X139800Y120000D02*X142800D01*
X139800Y126000D02*Y120000D01*
Y126000D02*X142800D01*
X147600D02*X148350Y125250D01*
X145350Y126000D02*X147600D01*
X144600Y125250D02*X145350Y126000D01*
X144600Y125250D02*Y123750D01*
X145350Y123000D01*
X147600D01*
X148350Y122250D01*
Y120750D01*
X147600Y120000D02*X148350Y120750D01*
X145350Y120000D02*X147600D01*
X144600Y120750D02*X145350Y120000D01*
X98000Y124800D02*X99200Y126000D01*
Y120000D01*
X98000D02*X100250D01*
X102050Y120750D02*X102800Y120000D01*
X102050Y121950D02*Y120750D01*
Y121950D02*X103100Y123000D01*
X104000D01*
X105050Y121950D01*
Y120750D01*
X104300Y120000D02*X105050Y120750D01*
X102800Y120000D02*X104300D01*
X102050Y124050D02*X103100Y123000D01*
X102050Y125250D02*Y124050D01*
Y125250D02*X102800Y126000D01*
X104300D01*
X105050Y125250D01*
Y124050D01*
X104000Y123000D02*X105050Y124050D01*
X45000Y120750D02*X45750Y120000D01*
X45000Y125250D02*Y120750D01*
Y125250D02*X45750Y126000D01*
X47250D01*
X48000Y125250D01*
Y120750D01*
X47250Y120000D02*X48000Y120750D01*
X45750Y120000D02*X47250D01*
X45000Y121500D02*X48000Y124500D01*
X49800Y120000D02*X50550D01*
X52350Y120750D02*X53100Y120000D01*
X52350Y125250D02*Y120750D01*
Y125250D02*X53100Y126000D01*
X54600D01*
X55350Y125250D01*
Y120750D01*
X54600Y120000D02*X55350Y120750D01*
X53100Y120000D02*X54600D01*
X52350Y121500D02*X55350Y124500D01*
X57150Y125250D02*X57900Y126000D01*
X60150D01*
X60900Y125250D01*
Y123750D01*
X57150Y120000D02*X60900Y123750D01*
X57150Y120000D02*X60900D01*
X62700Y120750D02*X63450Y120000D01*
X62700Y125250D02*Y120750D01*
Y125250D02*X63450Y126000D01*
X64950D01*
X65700Y125250D01*
Y120750D01*
X64950Y120000D02*X65700Y120750D01*
X63450Y120000D02*X64950D01*
X62700Y121500D02*X65700Y124500D01*
X3000Y141000D02*X3750Y140250D01*
X750Y141000D02*X3000D01*
X0Y140250D02*X750Y141000D01*
X0Y140250D02*Y138750D01*
X750Y138000D01*
X3000D01*
X3750Y137250D01*
Y135750D01*
X3000Y135000D02*X3750Y135750D01*
X750Y135000D02*X3000D01*
X0Y135750D02*X750Y135000D01*
X5550Y138000D02*Y135750D01*
X6300Y135000D01*
X8550Y138000D02*Y133500D01*
X7800Y132750D02*X8550Y133500D01*
X6300Y132750D02*X7800D01*
X5550Y133500D02*X6300Y132750D01*
Y135000D02*X7800D01*
X8550Y135750D01*
X11100Y137250D02*Y135000D01*
Y137250D02*X11850Y138000D01*
X12600D01*
X13350Y137250D01*
Y135000D01*
Y137250D02*X14100Y138000D01*
X14850D01*
X15600Y137250D01*
Y135000D01*
X10350Y138000D02*X11100Y137250D01*
X17400Y141000D02*Y135000D01*
Y135750D02*X18150Y135000D01*
X19650D01*
X20400Y135750D01*
Y137250D02*Y135750D01*
X19650Y138000D02*X20400Y137250D01*
X18150Y138000D02*X19650D01*
X17400Y137250D02*X18150Y138000D01*
X22200Y137250D02*Y135750D01*
Y137250D02*X22950Y138000D01*
X24450D01*
X25200Y137250D01*
Y135750D01*
X24450Y135000D02*X25200Y135750D01*
X22950Y135000D02*X24450D01*
X22200Y135750D02*X22950Y135000D01*
X27000Y141000D02*Y135750D01*
X27750Y135000D01*
X0Y131750D02*X29250D01*
X41750Y141000D02*Y135000D01*
X43700Y141000D02*X44750Y139950D01*
Y136050D01*
X43700Y135000D02*X44750Y136050D01*
X41000Y135000D02*X43700D01*
X41000Y141000D02*X43700D01*
G54D49*X46550Y139500D02*Y139350D01*
G54D48*Y137250D02*Y135000D01*
X50300Y138000D02*X51050Y137250D01*
X48800Y138000D02*X50300D01*
X48050Y137250D02*X48800Y138000D01*
X48050Y137250D02*Y135750D01*
X48800Y135000D01*
X51050Y138000D02*Y135750D01*
X51800Y135000D01*
X48800D02*X50300D01*
X51050Y135750D01*
X54350Y137250D02*Y135000D01*
Y137250D02*X55100Y138000D01*
X55850D01*
X56600Y137250D01*
Y135000D01*
Y137250D02*X57350Y138000D01*
X58100D01*
X58850Y137250D01*
Y135000D01*
X53600Y138000D02*X54350Y137250D01*
X60650Y135000D02*X61400D01*
X65900Y135750D02*X66650Y135000D01*
X65900Y140250D02*X66650Y141000D01*
X65900Y140250D02*Y135750D01*
X68450Y141000D02*X69950D01*
X69200D02*Y135000D01*
X68450D02*X69950D01*
X72500Y137250D02*Y135000D01*
Y137250D02*X73250Y138000D01*
X74000D01*
X74750Y137250D01*
Y135000D01*
X71750Y138000D02*X72500Y137250D01*
X77300Y138000D02*X79550D01*
X76550Y137250D02*X77300Y138000D01*
X76550Y137250D02*Y135750D01*
X77300Y135000D01*
X79550D01*
X81350Y141000D02*Y135000D01*
Y137250D02*X82100Y138000D01*
X83600D01*
X84350Y137250D01*
Y135000D01*
X86150Y141000D02*X86900Y140250D01*
Y135750D01*
X86150Y135000D02*X86900Y135750D01*
X41000Y131750D02*X88700D01*
X96050Y135000D02*X98000D01*
X95000Y136050D02*X96050Y135000D01*
X95000Y139950D02*Y136050D01*
Y139950D02*X96050Y141000D01*
X98000D01*
X99800Y137250D02*Y135750D01*
Y137250D02*X100550Y138000D01*
X102050D01*
X102800Y137250D01*
Y135750D01*
X102050Y135000D02*X102800Y135750D01*
X100550Y135000D02*X102050D01*
X99800Y135750D02*X100550Y135000D01*
X104600Y138000D02*Y135750D01*
X105350Y135000D01*
X106850D01*
X107600Y135750D01*
Y138000D02*Y135750D01*
X110150Y137250D02*Y135000D01*
Y137250D02*X110900Y138000D01*
X111650D01*
X112400Y137250D01*
Y135000D01*
X109400Y138000D02*X110150Y137250D01*
X114950Y141000D02*Y135750D01*
X115700Y135000D01*
X114200Y138750D02*X115700D01*
X95000Y131750D02*X117200D01*
X130750Y141000D02*Y135000D01*
X130000Y141000D02*X133000D01*
X133750Y140250D01*
Y138750D01*
X133000Y138000D02*X133750Y138750D01*
X130750Y138000D02*X133000D01*
X135550Y141000D02*Y135750D01*
X136300Y135000D01*
X140050Y138000D02*X140800Y137250D01*
X138550Y138000D02*X140050D01*
X137800Y137250D02*X138550Y138000D01*
X137800Y137250D02*Y135750D01*
X138550Y135000D01*
X140800Y138000D02*Y135750D01*
X141550Y135000D01*
X138550D02*X140050D01*
X140800Y135750D01*
X144100Y141000D02*Y135750D01*
X144850Y135000D01*
X143350Y138750D02*X144850D01*
X147100Y135000D02*X149350D01*
X146350Y135750D02*X147100Y135000D01*
X146350Y137250D02*Y135750D01*
Y137250D02*X147100Y138000D01*
X148600D01*
X149350Y137250D01*
X146350Y136500D02*X149350D01*
Y137250D02*Y136500D01*
X154150Y141000D02*Y135000D01*
X153400D02*X154150Y135750D01*
X151900Y135000D02*X153400D01*
X151150Y135750D02*X151900Y135000D01*
X151150Y137250D02*Y135750D01*
Y137250D02*X151900Y138000D01*
X153400D01*
X154150Y137250D01*
X157450Y138000D02*Y137250D01*
Y135750D02*Y135000D01*
X155950Y140250D02*Y139500D01*
Y140250D02*X156700Y141000D01*
X158200D01*
X158950Y140250D01*
Y139500D01*
X157450Y138000D02*X158950Y139500D01*
X130000Y131750D02*X160750D01*
X0Y156000D02*X3000D01*
X1500D02*Y150000D01*
X4800Y156000D02*Y150000D01*
Y152250D02*X5550Y153000D01*
X7050D01*
X7800Y152250D01*
Y150000D01*
X10350D02*X12600D01*
X9600Y150750D02*X10350Y150000D01*
X9600Y152250D02*Y150750D01*
Y152250D02*X10350Y153000D01*
X11850D01*
X12600Y152250D01*
X9600Y151500D02*X12600D01*
Y152250D02*Y151500D01*
X15150Y152250D02*Y150000D01*
Y152250D02*X15900Y153000D01*
X17400D01*
X14400D02*X15150Y152250D01*
X19950Y150000D02*X22200D01*
X19200Y150750D02*X19950Y150000D01*
X19200Y152250D02*Y150750D01*
Y152250D02*X19950Y153000D01*
X21450D01*
X22200Y152250D01*
X19200Y151500D02*X22200D01*
Y152250D02*Y151500D01*
X28950Y153000D02*X29700Y152250D01*
X27450Y153000D02*X28950D01*
X26700Y152250D02*X27450Y153000D01*
X26700Y152250D02*Y150750D01*
X27450Y150000D01*
X29700Y153000D02*Y150750D01*
X30450Y150000D01*
X27450D02*X28950D01*
X29700Y150750D01*
X33000Y152250D02*Y150000D01*
Y152250D02*X33750Y153000D01*
X35250D01*
X32250D02*X33000Y152250D01*
X37800Y150000D02*X40050D01*
X37050Y150750D02*X37800Y150000D01*
X37050Y152250D02*Y150750D01*
Y152250D02*X37800Y153000D01*
X39300D01*
X40050Y152250D01*
X37050Y151500D02*X40050D01*
Y152250D02*Y151500D01*
X44550Y155250D02*X45300Y156000D01*
X47550D01*
X48300Y155250D01*
Y153750D01*
X44550Y150000D02*X48300Y153750D01*
X44550Y150000D02*X48300D01*
X55800Y156000D02*Y150000D01*
X55050D02*X55800Y150750D01*
X53550Y150000D02*X55050D01*
X52800Y150750D02*X53550Y150000D01*
X52800Y152250D02*Y150750D01*
Y152250D02*X53550Y153000D01*
X55050D01*
X55800Y152250D01*
G54D49*X57600Y154500D02*Y154350D01*
G54D48*Y152250D02*Y150000D01*
X59850Y155250D02*Y150000D01*
Y155250D02*X60600Y156000D01*
X61350D01*
X59100Y153000D02*X60600D01*
X63600Y155250D02*Y150000D01*
Y155250D02*X64350Y156000D01*
X65100D01*
X62850Y153000D02*X64350D01*
X67350Y150000D02*X69600D01*
X66600Y150750D02*X67350Y150000D01*
X66600Y152250D02*Y150750D01*
Y152250D02*X67350Y153000D01*
X68850D01*
X69600Y152250D01*
X66600Y151500D02*X69600D01*
Y152250D02*Y151500D01*
X72150Y152250D02*Y150000D01*
Y152250D02*X72900Y153000D01*
X74400D01*
X71400D02*X72150Y152250D01*
X76950Y150000D02*X79200D01*
X76200Y150750D02*X76950Y150000D01*
X76200Y152250D02*Y150750D01*
Y152250D02*X76950Y153000D01*
X78450D01*
X79200Y152250D01*
X76200Y151500D02*X79200D01*
Y152250D02*Y151500D01*
X81750Y152250D02*Y150000D01*
Y152250D02*X82500Y153000D01*
X83250D01*
X84000Y152250D01*
Y150000D01*
X81000Y153000D02*X81750Y152250D01*
X86550Y156000D02*Y150750D01*
X87300Y150000D01*
X85800Y153750D02*X87300D01*
X94500Y156000D02*Y150000D01*
X93750D02*X94500Y150750D01*
X92250Y150000D02*X93750D01*
X91500Y150750D02*X92250Y150000D01*
X91500Y152250D02*Y150750D01*
Y152250D02*X92250Y153000D01*
X93750D01*
X94500Y152250D01*
X97050D02*Y150000D01*
Y152250D02*X97800Y153000D01*
X99300D01*
X96300D02*X97050Y152250D01*
G54D49*X101100Y154500D02*Y154350D01*
G54D48*Y152250D02*Y150000D01*
X102600Y156000D02*Y150750D01*
X103350Y150000D01*
X104850Y156000D02*Y150750D01*
X105600Y150000D01*
X110550D02*X112800D01*
X113550Y150750D01*
X112800Y151500D02*X113550Y150750D01*
X110550Y151500D02*X112800D01*
X109800Y152250D02*X110550Y151500D01*
X109800Y152250D02*X110550Y153000D01*
X112800D01*
X113550Y152250D01*
X109800Y150750D02*X110550Y150000D01*
G54D49*X115350Y154500D02*Y154350D01*
G54D48*Y152250D02*Y150000D01*
X116850Y153000D02*X119850D01*
X116850Y150000D02*X119850Y153000D01*
X116850Y150000D02*X119850D01*
X122400D02*X124650D01*
X121650Y150750D02*X122400Y150000D01*
X121650Y152250D02*Y150750D01*
Y152250D02*X122400Y153000D01*
X123900D01*
X124650Y152250D01*
X121650Y151500D02*X124650D01*
Y152250D02*Y151500D01*
X127200Y150000D02*X129450D01*
X130200Y150750D01*
X129450Y151500D02*X130200Y150750D01*
X127200Y151500D02*X129450D01*
X126450Y152250D02*X127200Y151500D01*
X126450Y152250D02*X127200Y153000D01*
X129450D01*
X130200Y152250D01*
X126450Y150750D02*X127200Y150000D01*
X134700Y153000D02*Y150750D01*
X135450Y150000D01*
X136950D01*
X137700Y150750D01*
Y153000D02*Y150750D01*
X140250Y150000D02*X142500D01*
X143250Y150750D01*
X142500Y151500D02*X143250Y150750D01*
X140250Y151500D02*X142500D01*
X139500Y152250D02*X140250Y151500D01*
X139500Y152250D02*X140250Y153000D01*
X142500D01*
X143250Y152250D01*
X139500Y150750D02*X140250Y150000D01*
X145800D02*X148050D01*
X145050Y150750D02*X145800Y150000D01*
X145050Y152250D02*Y150750D01*
Y152250D02*X145800Y153000D01*
X147300D01*
X148050Y152250D01*
X145050Y151500D02*X148050D01*
Y152250D02*Y151500D01*
X152850Y156000D02*Y150000D01*
X152100D02*X152850Y150750D01*
X150600Y150000D02*X152100D01*
X149850Y150750D02*X150600Y150000D01*
X149850Y152250D02*Y150750D01*
Y152250D02*X150600Y153000D01*
X152100D01*
X152850Y152250D01*
G54D49*X157350Y154500D02*Y154350D01*
G54D48*Y152250D02*Y150000D01*
X159600Y152250D02*Y150000D01*
Y152250D02*X160350Y153000D01*
X161100D01*
X161850Y152250D01*
Y150000D01*
X158850Y153000D02*X159600Y152250D01*
X167100Y156000D02*Y150750D01*
X167850Y150000D01*
X166350Y153750D02*X167850D01*
X169350Y156000D02*Y150000D01*
Y152250D02*X170100Y153000D01*
X171600D01*
X172350Y152250D01*
Y150000D01*
G54D49*X174150Y154500D02*Y154350D01*
G54D48*Y152250D02*Y150000D01*
X176400D02*X178650D01*
X179400Y150750D01*
X178650Y151500D02*X179400Y150750D01*
X176400Y151500D02*X178650D01*
X175650Y152250D02*X176400Y151500D01*
X175650Y152250D02*X176400Y153000D01*
X178650D01*
X179400Y152250D01*
X175650Y150750D02*X176400Y150000D01*
X183900Y156000D02*Y150750D01*
X184650Y150000D01*
X188400Y153000D02*X189150Y152250D01*
X186900Y153000D02*X188400D01*
X186150Y152250D02*X186900Y153000D01*
X186150Y152250D02*Y150750D01*
X186900Y150000D01*
X189150Y153000D02*Y150750D01*
X189900Y150000D01*
X186900D02*X188400D01*
X189150Y150750D01*
X191700Y153000D02*Y150750D01*
X192450Y150000D01*
X194700Y153000D02*Y148500D01*
X193950Y147750D02*X194700Y148500D01*
X192450Y147750D02*X193950D01*
X191700Y148500D02*X192450Y147750D01*
Y150000D02*X193950D01*
X194700Y150750D01*
X196500Y152250D02*Y150750D01*
Y152250D02*X197250Y153000D01*
X198750D01*
X199500Y152250D01*
Y150750D01*
X198750Y150000D02*X199500Y150750D01*
X197250Y150000D02*X198750D01*
X196500Y150750D02*X197250Y150000D01*
X201300Y153000D02*Y150750D01*
X202050Y150000D01*
X203550D01*
X204300Y150750D01*
Y153000D02*Y150750D01*
X206850Y156000D02*Y150750D01*
X207600Y150000D01*
X206100Y153750D02*X207600D01*
X209100Y148500D02*X210600Y150000D01*
X215100Y154800D02*X216300Y156000D01*
Y150000D01*
X215100D02*X217350D01*
X219900D02*X222150Y153000D01*
Y155250D02*Y153000D01*
X221400Y156000D02*X222150Y155250D01*
X219900Y156000D02*X221400D01*
X219150Y155250D02*X219900Y156000D01*
X219150Y155250D02*Y153750D01*
X219900Y153000D01*
X222150D01*
X226650Y156000D02*Y150000D01*
Y152250D02*X227400Y153000D01*
X228900D01*
X229650Y152250D01*
Y150000D01*
X231450Y152250D02*Y150750D01*
Y152250D02*X232200Y153000D01*
X233700D01*
X234450Y152250D01*
Y150750D01*
X233700Y150000D02*X234450Y150750D01*
X232200Y150000D02*X233700D01*
X231450Y150750D02*X232200Y150000D01*
X236250Y156000D02*Y150750D01*
X237000Y150000D01*
X239250D02*X241500D01*
X238500Y150750D02*X239250Y150000D01*
X238500Y152250D02*Y150750D01*
Y152250D02*X239250Y153000D01*
X240750D01*
X241500Y152250D01*
X238500Y151500D02*X241500D01*
Y152250D02*Y151500D01*
X244050Y150000D02*X246300D01*
X247050Y150750D01*
X246300Y151500D02*X247050Y150750D01*
X244050Y151500D02*X246300D01*
X243300Y152250D02*X244050Y151500D01*
X243300Y152250D02*X244050Y153000D01*
X246300D01*
X247050Y152250D01*
X243300Y150750D02*X244050Y150000D01*
X252300Y156000D02*Y150750D01*
X253050Y150000D01*
X251550Y153750D02*X253050D01*
X254550Y152250D02*Y150750D01*
Y152250D02*X255300Y153000D01*
X256800D01*
X257550Y152250D01*
Y150750D01*
X256800Y150000D02*X257550Y150750D01*
X255300Y150000D02*X256800D01*
X254550Y150750D02*X255300Y150000D01*
X260100Y156000D02*Y150750D01*
X260850Y150000D01*
X259350Y153750D02*X260850D01*
X264600Y153000D02*X265350Y152250D01*
X263100Y153000D02*X264600D01*
X262350Y152250D02*X263100Y153000D01*
X262350Y152250D02*Y150750D01*
X263100Y150000D01*
X265350Y153000D02*Y150750D01*
X266100Y150000D01*
X263100D02*X264600D01*
X265350Y150750D01*
X267900Y156000D02*Y150750D01*
X268650Y150000D01*
G54D50*X0Y67500D02*X40000D01*
X0Y0D02*X40000D01*
Y67500D01*
X0D02*Y0D01*
G54D48*Y-9500D02*X3000D01*
X3750Y-8750D01*
Y-6950D02*Y-8750D01*
X3000Y-6200D02*X3750Y-6950D01*
X750Y-6200D02*X3000D01*
X750Y-3500D02*Y-9500D01*
X0Y-3500D02*X3000D01*
X3750Y-4250D01*
Y-5450D01*
X3000Y-6200D02*X3750Y-5450D01*
X5550Y-7250D02*Y-8750D01*
Y-7250D02*X6300Y-6500D01*
X7800D01*
X8550Y-7250D01*
Y-8750D01*
X7800Y-9500D02*X8550Y-8750D01*
X6300Y-9500D02*X7800D01*
X5550Y-8750D02*X6300Y-9500D01*
X12600Y-6500D02*X13350Y-7250D01*
X11100Y-6500D02*X12600D01*
X10350Y-7250D02*X11100Y-6500D01*
X10350Y-7250D02*Y-8750D01*
X11100Y-9500D01*
X13350Y-6500D02*Y-8750D01*
X14100Y-9500D01*
X11100D02*X12600D01*
X13350Y-8750D01*
X16650Y-7250D02*Y-9500D01*
Y-7250D02*X17400Y-6500D01*
X18900D01*
X15900D02*X16650Y-7250D01*
X23700Y-3500D02*Y-9500D01*
X22950D02*X23700Y-8750D01*
X21450Y-9500D02*X22950D01*
X20700Y-8750D02*X21450Y-9500D01*
X20700Y-7250D02*Y-8750D01*
Y-7250D02*X21450Y-6500D01*
X22950D01*
X23700Y-7250D01*
X28200D02*Y-8750D01*
Y-7250D02*X28950Y-6500D01*
X30450D01*
X31200Y-7250D01*
Y-8750D01*
X30450Y-9500D02*X31200Y-8750D01*
X28950Y-9500D02*X30450D01*
X28200Y-8750D02*X28950Y-9500D01*
X33000Y-6500D02*Y-8750D01*
X33750Y-9500D01*
X35250D01*
X36000Y-8750D01*
Y-6500D02*Y-8750D01*
X38550Y-3500D02*Y-8750D01*
X39300Y-9500D01*
X37800Y-5750D02*X39300D01*
X40800Y-3500D02*Y-8750D01*
X41550Y-9500D01*
G54D49*X43050Y-5000D02*Y-5150D01*
G54D48*Y-7250D02*Y-9500D01*
X45300Y-7250D02*Y-9500D01*
Y-7250D02*X46050Y-6500D01*
X46800D01*
X47550Y-7250D01*
Y-9500D01*
X44550Y-6500D02*X45300Y-7250D01*
X50100Y-9500D02*X52350D01*
X49350Y-8750D02*X50100Y-9500D01*
X49350Y-7250D02*Y-8750D01*
Y-7250D02*X50100Y-6500D01*
X51600D01*
X52350Y-7250D01*
X49350Y-8000D02*X52350D01*
Y-7250D02*Y-8000D01*
G54D49*X56850Y-5000D02*Y-5150D01*
G54D48*Y-7250D02*Y-9500D01*
X59100D02*X61350D01*
X62100Y-8750D01*
X61350Y-8000D02*X62100Y-8750D01*
X59100Y-8000D02*X61350D01*
X58350Y-7250D02*X59100Y-8000D01*
X58350Y-7250D02*X59100Y-6500D01*
X61350D01*
X62100Y-7250D01*
X58350Y-8750D02*X59100Y-9500D01*
X67350Y-3500D02*Y-8750D01*
X68100Y-9500D01*
X66600Y-5750D02*X68100D01*
X69600Y-3500D02*Y-9500D01*
Y-7250D02*X70350Y-6500D01*
X71850D01*
X72600Y-7250D01*
Y-9500D01*
X75150D02*X77400D01*
X74400Y-8750D02*X75150Y-9500D01*
X74400Y-7250D02*Y-8750D01*
Y-7250D02*X75150Y-6500D01*
X76650D01*
X77400Y-7250D01*
X74400Y-8000D02*X77400D01*
Y-7250D02*Y-8000D01*
X82650Y-6500D02*X84900D01*
X81900Y-7250D02*X82650Y-6500D01*
X81900Y-7250D02*Y-8750D01*
X82650Y-9500D01*
X84900D01*
X87450D02*X89700D01*
X86700Y-8750D02*X87450Y-9500D01*
X86700Y-7250D02*Y-8750D01*
Y-7250D02*X87450Y-6500D01*
X88950D01*
X89700Y-7250D01*
X86700Y-8000D02*X89700D01*
Y-7250D02*Y-8000D01*
X92250Y-7250D02*Y-9500D01*
Y-7250D02*X93000Y-6500D01*
X93750D01*
X94500Y-7250D01*
Y-9500D01*
X91500Y-6500D02*X92250Y-7250D01*
X97050Y-3500D02*Y-8750D01*
X97800Y-9500D01*
X96300Y-5750D02*X97800D01*
X100050Y-9500D02*X102300D01*
X99300Y-8750D02*X100050Y-9500D01*
X99300Y-7250D02*Y-8750D01*
Y-7250D02*X100050Y-6500D01*
X101550D01*
X102300Y-7250D01*
X99300Y-8000D02*X102300D01*
Y-7250D02*Y-8000D01*
X104850Y-7250D02*Y-9500D01*
Y-7250D02*X105600Y-6500D01*
X107100D01*
X104100D02*X104850Y-7250D01*
X108900Y-3500D02*Y-8750D01*
X109650Y-9500D01*
G54D49*X111150Y-5000D02*Y-5150D01*
G54D48*Y-7250D02*Y-9500D01*
X113400Y-7250D02*Y-9500D01*
Y-7250D02*X114150Y-6500D01*
X114900D01*
X115650Y-7250D01*
Y-9500D01*
X112650Y-6500D02*X113400Y-7250D01*
X118200Y-9500D02*X120450D01*
X117450Y-8750D02*X118200Y-9500D01*
X117450Y-7250D02*Y-8750D01*
Y-7250D02*X118200Y-6500D01*
X119700D01*
X120450Y-7250D01*
X117450Y-8000D02*X120450D01*
Y-7250D02*Y-8000D01*
X124950Y-7250D02*Y-8750D01*
Y-7250D02*X125700Y-6500D01*
X127200D01*
X127950Y-7250D01*
Y-8750D01*
X127200Y-9500D02*X127950Y-8750D01*
X125700Y-9500D02*X127200D01*
X124950Y-8750D02*X125700Y-9500D01*
X130500Y-4250D02*Y-9500D01*
Y-4250D02*X131250Y-3500D01*
X132000D01*
X129750Y-6500D02*X131250D01*
X136950Y-3500D02*Y-8750D01*
X137700Y-9500D01*
X136200Y-5750D02*X137700D01*
X139200Y-3500D02*Y-9500D01*
Y-7250D02*X139950Y-6500D01*
X141450D01*
X142200Y-7250D01*
Y-9500D01*
G54D49*X144000Y-5000D02*Y-5150D01*
G54D48*Y-7250D02*Y-9500D01*
X146250D02*X148500D01*
X149250Y-8750D01*
X148500Y-8000D02*X149250Y-8750D01*
X146250Y-8000D02*X148500D01*
X145500Y-7250D02*X146250Y-8000D01*
X145500Y-7250D02*X146250Y-6500D01*
X148500D01*
X149250Y-7250D01*
X145500Y-8750D02*X146250Y-9500D01*
X154500Y-7250D02*Y-11750D01*
X153750Y-6500D02*X154500Y-7250D01*
X155250Y-6500D01*
X156750D01*
X157500Y-7250D01*
Y-8750D01*
X156750Y-9500D02*X157500Y-8750D01*
X155250Y-9500D02*X156750D01*
X154500Y-8750D02*X155250Y-9500D01*
X161550Y-6500D02*X162300Y-7250D01*
X160050Y-6500D02*X161550D01*
X159300Y-7250D02*X160050Y-6500D01*
X159300Y-7250D02*Y-8750D01*
X160050Y-9500D01*
X162300Y-6500D02*Y-8750D01*
X163050Y-9500D01*
X160050D02*X161550D01*
X162300Y-8750D01*
X165600Y-3500D02*Y-8750D01*
X166350Y-9500D01*
X164850Y-5750D02*X166350D01*
X167850Y-3500D02*Y-9500D01*
Y-7250D02*X168600Y-6500D01*
X170100D01*
X170850Y-7250D01*
Y-9500D01*
X200750Y96000D02*Y90000D01*
X202700Y96000D02*X203750Y94950D01*
Y91050D01*
X202700Y90000D02*X203750Y91050D01*
X200000Y90000D02*X202700D01*
X200000Y96000D02*X202700D01*
X207800Y93000D02*X208550Y92250D01*
X206300Y93000D02*X207800D01*
X205550Y92250D02*X206300Y93000D01*
X205550Y92250D02*Y90750D01*
X206300Y90000D01*
X208550Y93000D02*Y90750D01*
X209300Y90000D01*
X206300D02*X207800D01*
X208550Y90750D01*
X211850Y96000D02*Y90750D01*
X212600Y90000D01*
X211100Y93750D02*X212600D01*
X214850Y90000D02*X217100D01*
X214100Y90750D02*X214850Y90000D01*
X214100Y92250D02*Y90750D01*
Y92250D02*X214850Y93000D01*
X216350D01*
X217100Y92250D01*
X214100Y91500D02*X217100D01*
Y92250D02*Y91500D01*
X218900Y93750D02*X219650D01*
X218900Y92250D02*X219650D01*
X224150Y96000D02*Y90000D01*
Y96000D02*X227150D01*
X224150Y93300D02*X226400D01*
X229700Y92250D02*Y90000D01*
Y92250D02*X230450Y93000D01*
X231950D01*
X228950D02*X229700Y92250D01*
G54D49*X233750Y94500D02*Y94350D01*
G54D48*Y92250D02*Y90000D01*
X237950Y95250D02*X238700Y96000D01*
X240950D01*
X241700Y95250D01*
Y93750D01*
X237950Y90000D02*X241700Y93750D01*
X237950Y90000D02*X241700D01*
X243500Y92250D02*X246500Y96000D01*
X243500Y92250D02*X247250D01*
X246500Y96000D02*Y90000D01*
X252800Y96000D02*X254000D01*
Y90750D01*
X253250Y90000D02*X254000Y90750D01*
X252500Y90000D02*X253250D01*
X251750Y90750D02*X252500Y90000D01*
X251750Y91500D02*Y90750D01*
X255800Y93000D02*Y90750D01*
X256550Y90000D01*
X258050D01*
X258800Y90750D01*
Y93000D02*Y90750D01*
X260600Y96000D02*Y90750D01*
X261350Y90000D01*
X265550Y95250D02*X266300Y96000D01*
X268550D01*
X269300Y95250D01*
Y93750D01*
X265550Y90000D02*X269300Y93750D01*
X265550Y90000D02*X269300D01*
X271100Y90750D02*X271850Y90000D01*
X271100Y95250D02*Y90750D01*
Y95250D02*X271850Y96000D01*
X273350D01*
X274100Y95250D01*
Y90750D01*
X273350Y90000D02*X274100Y90750D01*
X271850Y90000D02*X273350D01*
X271100Y91500D02*X274100Y94500D01*
X275900Y94800D02*X277100Y96000D01*
Y90000D01*
X275900D02*X278150D01*
X279950Y96000D02*X282950D01*
X279950D02*Y93000D01*
X280700Y93750D01*
X282200D01*
X282950Y93000D01*
Y90750D01*
X282200Y90000D02*X282950Y90750D01*
X280700Y90000D02*X282200D01*
X279950Y90750D02*X280700Y90000D01*
X287450Y90750D02*X288200Y90000D01*
X287450Y95250D02*Y90750D01*
Y95250D02*X288200Y96000D01*
X289700D01*
X290450Y95250D01*
Y90750D01*
X289700Y90000D02*X290450Y90750D01*
X288200Y90000D02*X289700D01*
X287450Y91500D02*X290450Y94500D01*
X294500Y96000D02*X295250Y95250D01*
X293000Y96000D02*X294500D01*
X292250Y95250D02*X293000Y96000D01*
X292250Y95250D02*Y90750D01*
X293000Y90000D01*
X294500Y93300D02*X295250Y92550D01*
X292250Y93300D02*X294500D01*
X293000Y90000D02*X294500D01*
X295250Y90750D01*
Y92550D02*Y90750D01*
X297050Y93750D02*X297800D01*
X297050Y92250D02*X297800D01*
X299600D02*X302600Y96000D01*
X299600Y92250D02*X303350D01*
X302600Y96000D02*Y90000D01*
X305150Y95250D02*X305900Y96000D01*
X308150D01*
X308900Y95250D01*
Y93750D01*
X305150Y90000D02*X308900Y93750D01*
X305150Y90000D02*X308900D01*
X310700Y93750D02*X311450D01*
X310700Y92250D02*X311450D01*
X313250D02*X316250Y96000D01*
X313250Y92250D02*X317000D01*
X316250Y96000D02*Y90000D01*
X318800Y95250D02*X319550Y96000D01*
X321050D01*
X321800Y95250D01*
X321050Y90000D02*X321800Y90750D01*
X319550Y90000D02*X321050D01*
X318800Y90750D02*X319550Y90000D01*
Y93300D02*X321050D01*
X321800Y95250D02*Y94050D01*
Y92550D02*Y90750D01*
Y92550D02*X321050Y93300D01*
X321800Y94050D02*X321050Y93300D01*
X327050Y96000D02*Y90000D01*
X326300Y96000D02*X329300D01*
X330050Y95250D01*
Y93750D01*
X329300Y93000D02*X330050Y93750D01*
X327050Y93000D02*X329300D01*
X331850Y96000D02*Y90000D01*
Y96000D02*X334100Y93000D01*
X336350Y96000D01*
Y90000D01*
X343850Y96000D02*X344600Y95250D01*
X341600Y96000D02*X343850D01*
X340850Y95250D02*X341600Y96000D01*
X340850Y95250D02*Y90750D01*
X341600Y90000D01*
X343850D01*
X344600Y90750D01*
Y92250D02*Y90750D01*
X343850Y93000D02*X344600Y92250D01*
X342350Y93000D02*X343850D01*
X346400Y96000D02*Y90000D01*
Y96000D02*X348650Y93000D01*
X350900Y96000D01*
Y90000D01*
X352700Y96000D02*X355700D01*
X354200D02*Y90000D01*
X360200Y96000D02*Y90750D01*
X360950Y90000D01*
X362450D01*
X363200Y90750D01*
Y96000D02*Y90750D01*
X365000Y96000D02*X368000D01*
X366500D02*Y90000D01*
X370850D02*X372800D01*
X369800Y91050D02*X370850Y90000D01*
X369800Y94950D02*Y91050D01*
Y94950D02*X370850Y96000D01*
X372800D01*
X200000Y109500D02*Y105000D01*
Y109500D02*X201050Y111000D01*
X202700D01*
X203750Y109500D01*
Y105000D01*
X200000Y108000D02*X203750D01*
X205550D02*Y105750D01*
X206300Y105000D01*
X207800D01*
X208550Y105750D01*
Y108000D02*Y105750D01*
X211100Y111000D02*Y105750D01*
X211850Y105000D01*
X210350Y108750D02*X211850D01*
X213350Y111000D02*Y105000D01*
Y107250D02*X214100Y108000D01*
X215600D01*
X216350Y107250D01*
Y105000D01*
X218150Y107250D02*Y105750D01*
Y107250D02*X218900Y108000D01*
X220400D01*
X221150Y107250D01*
Y105750D01*
X220400Y105000D02*X221150Y105750D01*
X218900Y105000D02*X220400D01*
X218150Y105750D02*X218900Y105000D01*
X223700Y107250D02*Y105000D01*
Y107250D02*X224450Y108000D01*
X225950D01*
X222950D02*X223700Y107250D01*
X227750Y108750D02*X228500D01*
X227750Y107250D02*X228500D01*
X233000Y111000D02*Y105000D01*
Y111000D02*X236750Y105000D01*
Y111000D02*Y105000D01*
X239300Y111000D02*Y105000D01*
X241250Y111000D02*X242300Y109950D01*
Y106050D01*
X241250Y105000D02*X242300Y106050D01*
X238550Y105000D02*X241250D01*
X238550Y111000D02*X241250D01*
X244100D02*Y105000D01*
X247850Y111000D02*Y105000D01*
X244100Y108000D02*X247850D01*
X249650Y107250D02*Y105750D01*
Y107250D02*X250400Y108000D01*
X251900D01*
X252650Y107250D01*
Y105750D01*
X251900Y105000D02*X252650Y105750D01*
X250400Y105000D02*X251900D01*
X249650Y105750D02*X250400Y105000D01*
X254450Y111000D02*Y105750D01*
X255200Y105000D01*
X257450Y107250D02*Y105000D01*
Y107250D02*X258200Y108000D01*
X258950D01*
X259700Y107250D01*
Y105000D01*
Y107250D02*X260450Y108000D01*
X261200D01*
X261950Y107250D01*
Y105000D01*
X256700Y108000D02*X257450Y107250D01*
X264500Y105000D02*X266750D01*
X263750Y105750D02*X264500Y105000D01*
X263750Y107250D02*Y105750D01*
Y107250D02*X264500Y108000D01*
X266000D01*
X266750Y107250D01*
X263750Y106500D02*X266750D01*
Y107250D02*Y106500D01*
X269300Y105000D02*X271550D01*
X272300Y105750D01*
X271550Y106500D02*X272300Y105750D01*
X269300Y106500D02*X271550D01*
X268550Y107250D02*X269300Y106500D01*
X268550Y107250D02*X269300Y108000D01*
X271550D01*
X272300Y107250D01*
X268550Y105750D02*X269300Y105000D01*
X200000Y126000D02*X203000D01*
X201500D02*Y120000D01*
G54D49*X204800Y124500D02*Y124350D01*
G54D48*Y122250D02*Y120000D01*
X207050Y126000D02*Y120750D01*
X207800Y120000D01*
X206300Y123750D02*X207800D01*
X209300Y126000D02*Y120750D01*
X210050Y120000D01*
X212300D02*X214550D01*
X211550Y120750D02*X212300Y120000D01*
X211550Y122250D02*Y120750D01*
Y122250D02*X212300Y123000D01*
X213800D01*
X214550Y122250D01*
X211550Y121500D02*X214550D01*
Y122250D02*Y121500D01*
X216350Y123750D02*X217100D01*
X216350Y122250D02*X217100D01*
X221600Y120750D02*X222350Y120000D01*
X221600Y125250D02*X222350Y126000D01*
X221600Y125250D02*Y120750D01*
X224150Y123000D02*Y120750D01*
X224900Y120000D01*
X226400D01*
X227150Y120750D01*
Y123000D02*Y120750D01*
X229700Y122250D02*Y120000D01*
Y122250D02*X230450Y123000D01*
X231200D01*
X231950Y122250D01*
Y120000D01*
X228950Y123000D02*X229700Y122250D01*
X233750Y126000D02*Y120000D01*
Y122250D02*X236000Y120000D01*
X233750Y122250D02*X235250Y123750D01*
X238550Y122250D02*Y120000D01*
Y122250D02*X239300Y123000D01*
X240050D01*
X240800Y122250D01*
Y120000D01*
X237800Y123000D02*X238550Y122250D01*
X242600D02*Y120750D01*
Y122250D02*X243350Y123000D01*
X244850D01*
X245600Y122250D01*
Y120750D01*
X244850Y120000D02*X245600Y120750D01*
X243350Y120000D02*X244850D01*
X242600Y120750D02*X243350Y120000D01*
X247400Y123000D02*Y120750D01*
X248150Y120000D01*
X248900D01*
X249650Y120750D01*
Y123000D02*Y120750D01*
X250400Y120000D01*
X251150D01*
X251900Y120750D01*
Y123000D02*Y120750D01*
X254450Y122250D02*Y120000D01*
Y122250D02*X255200Y123000D01*
X255950D01*
X256700Y122250D01*
Y120000D01*
X253700Y123000D02*X254450Y122250D01*
X258500Y126000D02*X259250Y125250D01*
Y120750D01*
X258500Y120000D02*X259250Y120750D01*
X263750Y123000D02*X266750D01*
X271250Y126000D02*Y120000D01*
Y126000D02*X274250D01*
X271250Y123300D02*X273500D01*
X278300Y123000D02*X279050Y122250D01*
X276800Y123000D02*X278300D01*
X276050Y122250D02*X276800Y123000D01*
X276050Y122250D02*Y120750D01*
X276800Y120000D01*
X279050Y123000D02*Y120750D01*
X279800Y120000D01*
X276800D02*X278300D01*
X279050Y120750D01*
X281600Y126000D02*Y120000D01*
Y120750D02*X282350Y120000D01*
X283850D01*
X284600Y120750D01*
Y122250D02*Y120750D01*
X283850Y123000D02*X284600Y122250D01*
X282350Y123000D02*X283850D01*
X281600Y122250D02*X282350Y123000D01*
X287150Y122250D02*Y120000D01*
Y122250D02*X287900Y123000D01*
X289400D01*
X286400D02*X287150Y122250D01*
G54D49*X291200Y124500D02*Y124350D01*
G54D48*Y122250D02*Y120000D01*
X293450Y123000D02*X295700D01*
X292700Y122250D02*X293450Y123000D01*
X292700Y122250D02*Y120750D01*
X293450Y120000D01*
X295700D01*
X299750Y123000D02*X300500Y122250D01*
X298250Y123000D02*X299750D01*
X297500Y122250D02*X298250Y123000D01*
X297500Y122250D02*Y120750D01*
X298250Y120000D01*
X300500Y123000D02*Y120750D01*
X301250Y120000D01*
X298250D02*X299750D01*
X300500Y120750D01*
X303800Y126000D02*Y120750D01*
X304550Y120000D01*
X303050Y123750D02*X304550D01*
G54D49*X306050Y124500D02*Y124350D01*
G54D48*Y122250D02*Y120000D01*
X307550Y122250D02*Y120750D01*
Y122250D02*X308300Y123000D01*
X309800D01*
X310550Y122250D01*
Y120750D01*
X309800Y120000D02*X310550Y120750D01*
X308300Y120000D02*X309800D01*
X307550Y120750D02*X308300Y120000D01*
X313100Y122250D02*Y120000D01*
Y122250D02*X313850Y123000D01*
X314600D01*
X315350Y122250D01*
Y120000D01*
X312350Y123000D02*X313100Y122250D01*
X320600Y126000D02*Y120000D01*
X322550Y126000D02*X323600Y124950D01*
Y121050D01*
X322550Y120000D02*X323600Y121050D01*
X319850Y120000D02*X322550D01*
X319850Y126000D02*X322550D01*
X326150Y122250D02*Y120000D01*
Y122250D02*X326900Y123000D01*
X328400D01*
X325400D02*X326150Y122250D01*
X332450Y123000D02*X333200Y122250D01*
X330950Y123000D02*X332450D01*
X330200Y122250D02*X330950Y123000D01*
X330200Y122250D02*Y120750D01*
X330950Y120000D01*
X333200Y123000D02*Y120750D01*
X333950Y120000D01*
X330950D02*X332450D01*
X333200Y120750D01*
X335750Y123000D02*Y120750D01*
X336500Y120000D01*
X337250D01*
X338000Y120750D01*
Y123000D02*Y120750D01*
X338750Y120000D01*
X339500D01*
X340250Y120750D01*
Y123000D02*Y120750D01*
G54D49*X342050Y124500D02*Y124350D01*
G54D48*Y122250D02*Y120000D01*
X344300Y122250D02*Y120000D01*
Y122250D02*X345050Y123000D01*
X345800D01*
X346550Y122250D01*
Y120000D01*
X343550Y123000D02*X344300Y122250D01*
X350600Y123000D02*X351350Y122250D01*
X349100Y123000D02*X350600D01*
X348350Y122250D02*X349100Y123000D01*
X348350Y122250D02*Y120750D01*
X349100Y120000D01*
X350600D01*
X351350Y120750D01*
X348350Y118500D02*X349100Y117750D01*
X350600D01*
X351350Y118500D01*
Y123000D02*Y118500D01*
M02*
